<?xml version="1.0" standalone="no"?>
<!DOCTYPE svg PUBLIC "-//W3C//DTD SVG 20010904//EN"
 "http://www.w3.org/TR/2001/REC-SVG-20010904/DTD/svg10.dtd">
<svg version="1.0" xmlns="http://www.w3.org/2000/svg"
 width="98.000000pt" height="108.000000pt" viewBox="0 0 98.000000 108.000000"
 preserveAspectRatio="xMidYMid meet">
<metadata>
Created by potrace 1.15, written by Peter Selinger 2001-2017
</metadata>
<g transform="translate(0.000000,108.000000) scale(0.100000,-0.100000)"
fill="#000000" stroke="none">
<path d="M200 951 c0 -6 17 -15 38 -21 80 -21 77 -7 77 -415 0 -406 2 -394
-73 -412 -19 -5 -37 -14 -40 -21 -3 -11 44 -13 244 -10 212 3 257 6 299 22 69
25 102 51 136 104 24 38 29 57 29 110 0 35 -5 73 -11 85 -32 63 -112 117 -196
135 -51 11 -48 33 7 53 60 22 126 81 140 125 17 51 8 134 -18 171 -12 17 -43
41 -69 54 -46 23 -58 24 -305 27 -171 2 -258 0 -258 -7z m450 -41 c101 -51
109 -234 14 -309 -39 -31 -90 -43 -164 -39 l-65 3 -3 170 c-1 93 0 175 2 182
9 23 169 17 216 -7z m24 -406 c22 -11 54 -37 70 -58 29 -35 31 -43 31 -119 0
-100 -27 -159 -89 -193 -77 -44 -191 -38 -233 11 -22 25 -23 34 -23 194 0 120
4 171 13 180 20 21 183 11 231 -15z"/>
</g>
</svg>
