<?xml version="1.0" standalone="no"?>
<!DOCTYPE svg PUBLIC "-//W3C//DTD SVG 20010904//EN"
 "http://www.w3.org/TR/2001/REC-SVG-20010904/DTD/svg10.dtd">
<svg version="1.0" xmlns="http://www.w3.org/2000/svg"
 width="98.000000pt" height="108.000000pt" viewBox="0 0 98.000000 108.000000"
 preserveAspectRatio="xMidYMid meet">
<metadata>
Created by potrace 1.15, written by Peter Selinger 2001-2017
</metadata>
<g transform="translate(0.000000,108.000000) scale(0.100000,-0.100000)"
fill="#000000" stroke="none">
<path d="M0 540 l0 -540 489 0 489 0 1 315 c2 272 0 318 -14 331 -19 19 -19
29 0 48 12 12 15 49 15 200 l0 186 -490 0 -490 0 0 -540z m575 437 c162 -3
188 -10 248 -66 43 -39 57 -74 57 -139 0 -82 -41 -145 -122 -187 -60 -31 -72
-45 -38 -45 32 0 123 -45 152 -76 82 -88 77 -235 -13 -322 -32 -31 -48 -41
-121 -70 -22 -9 -336 -16 -540 -12 -12 0 -18 8 -18 24 0 25 16 36 56 36 13 0
33 9 44 20 19 19 20 33 20 375 0 343 -1 356 -20 373 -11 9 -37 22 -58 28 -29
8 -38 16 -40 36 -4 33 1 34 137 31 58 -2 174 -4 256 -6z"/>
<path d="M448 913 c-2 -5 -2 -82 0 -172 l4 -163 76 4 c100 6 138 26 164 85 28
64 22 161 -12 199 -14 14 -36 31 -50 36 -31 13 -177 21 -182 11z"/>
<path d="M449 499 c-3 -8 -3 -87 0 -177 7 -179 4 -173 76 -193 49 -14 131 2
171 33 39 31 64 93 64 163 0 70 -19 108 -75 150 -32 25 -46 29 -134 33 -77 4
-99 2 -102 -9z"/>
</g>
</svg>
